<svg data-name="Ebene 1" id="Ebene_1" viewBox="0 0 120.575 77.3009" xmlns="http://www.w3.org/2000/svg">
  <defs>
    <style>.cls-1, .cls-2 {
      fill: #fff;
    }

    .cls-2 {
      font-size: 18px;
      font-family: Calibri;
    }</style>
  </defs>
  <path class="cls-1"
        d="M0,13.21c.697-.0524,1.8005-.4032,2.02-.1049a42.2577,42.2577,0,0,1,2.1762,3.8931c4.832,8.3184,9.6122,16.6687,14.5917,24.8981.9521,1.5735,2.7157,2.6559,4.1049,3.9649.6451-1.7921,1.7208-3.55,1.864-5.3819.7942-10.1567.3837-20.2611-2.3328-30.1524-.7775-2.831-.5372-5.1849,2.2414-7.1095,2.5509,3.5044,2.9654,7.5644,3.1033,11.3961.3465,9.6281.2437,19.2768.111,28.9143a18.4784,18.4784,0,0,1-1.4911,6.2482c-1.1455,2.9388-3.5176,3.5244-5.909,1.45a27.3684,27.3684,0,0,1-4.2633-4.8531c-2.4985-3.5184-4.8107-7.1686-7.2235-10.7485a7.08,7.08,0,0,0-3.17-2.81c.4119,5.0664.6814,10.15,1.2947,15.192A12.311,12.311,0,0,1,6,55.21H5c-.655-2.5139-1.7334-5.0032-1.8812-7.5466-.3626-6.2425-.459-12.5129-.3431-18.7661A18.3373,18.3373,0,0,0,0,18.21Z"
        transform="translate(0 -1.2104)"/>
  <path class="cls-1"
        d="M120,43.21c-.9211,1.5494-1.7668,3.15-2.7767,4.6389-3.7652,5.5527-8.5734,5.5019-12.2332-.0944-.5252-.803-.9976-1.64-1.6916-2.7882-1.3043,1.5948-2.349,3.0561-3.5779,4.3409-3.97,4.15-8.9216,3.5261-11.2348-1.7263a24.189,24.189,0,0,1-1.5548-8.2127A23.7712,23.7712,0,0,1,89.8671,26.9a12.3449,12.3449,0,0,1,2.6412-3.5625c2.7449-2.4045,6.0813-1.5017,6.9531,2.0106a13.2984,13.2984,0,0,1-.075,5.8716c-.924,4.1743-3.373,7.5193-6.44,10.4648-2.3272,2.2354-2.325,3.9351-.22,5.7317,1.7608,1.5031,3.9956,1.2944,5.5055-1.102,2.1763-3.4538,4.6817-6.7152,5.0583-11.18a23.0526,23.0526,0,0,1,2.8967-8.3954c1.8874-3.5941,4.7374-6.0079,9.31-4.8614a4.9637,4.9637,0,0,0,1.8659-.3117c1.3908,7.1265.8552,9.09-3.2557,10.752,0-1.8064.0782-3.4313-.0417-5.0414-.043-.5766-.4979-1.5237-.8819-1.5865a5.6613,5.6613,0,0,0-2.2362.51,1.1051,1.1051,0,0,0-.3845.31c-3.7518,3.6716-4.9884,14.8187-2.15,19.3668,1.5451,2.4758,3.7486,2.8961,5.7249.7326a23.3052,23.3052,0,0,0,3.0767-5.058c.6317-1.2113,1.1483-2.3972,2.7856-2.3419ZM90.4693,39.2158c4.1-3.2623,5.8495-6.8361,6.04-11.1619.0308-.6987-.61-1.427-.94-2.1415-.6414.4255-1.5176.7057-1.8853,1.3C91.5674,30.6377,90.6407,34.4264,90.4693,39.2158Z"
        transform="translate(0 -1.2104)"/>
  <path class="cls-1"
        d="M95,1.21c-.4575,3.4341-1.07,4.291-3.9588,4.3307-6.0339.0828-5.78,1.5613-6.4416,5.5109-.9325,5.5642-1.7881,11.1441-2.5112,16.7387-.1857,1.4374.334,2.9521.3831,4.4362.1812,5.47.3662,10.9424.3869,16.4145.004,1.0565-.7255,2.1158-1.1279,3.2042-2.2112-.72-2.5474-2.3961-2.6729-4.0455-.44-5.7871-.7885-11.5813-1.1557-17.3739a25.4976,25.4976,0,0,0-.2951-4.9345,7.6133,7.6133,0,0,1,.7676-6.3479c1.71-3.2076,1.72-7.3213,2.5311-11.4047-4.2371.0823-7.645,2.2982-11.38,3.2627-.4592-3.1281-.3862-3.7643,2.4956-4.76,4.5292-1.565,9.2158-2.6727,13.83-3.994,1.0616-.304,2.1-.6894,3.149-1.0373Z"
        transform="translate(0 -1.2104)"/>
  <path class="cls-1"
        d="M66.8085,27.8025a4.3835,4.3835,0,0,1,4.7183,2.5285A18.4336,18.4336,0,0,1,72.992,46.6366c-1.02,2.92-3.112,4.913-6.2372,4.9585-3.1513.0458-5.3338-2.0324-6.3569-4.8346-.9366-2.5652-1.2684-5.3512-2.0491-8.8592-.9558,2.5929-1.81,4.5247-2.3691,6.5385-.5312,1.9132-.6793,3.93-1.1344,5.868-.3944,1.68-1.68,2.1292-2.9417.9735A14.9592,14.9592,0,0,1,49.47,48.1774,38.79,38.79,0,0,1,47.7,44.64a52.3328,52.3328,0,0,1-4.4335,5.1041c-3.69,3.2827-8.1009,2.6642-10.482-1.66a18.6044,18.6044,0,0,1-2.0568-7.08,25.5922,25.5922,0,0,1,3.2961-15.3652c1.8814-3.2834,4.5817-4.7865,6.73-3.9186,2.2774.92,3.6029,3.7857,3.07,7.2777-.7857,5.1481-3.6163,9.2081-7.1814,12.853-1.9113,1.954-1.9723,2.9226-.6052,4.6561,1.6112,2.0432,3.8644,2.4506,5.5333.42,2.82-3.43,5.6357-6.9251,5.1135-11.9814a42.867,42.867,0,0,1,.48-8.425c.0519-.5338.7992-1.47,1.0789-1.4192.701.1282,1.752.6068,1.8865,1.14A24.8382,24.8382,0,0,1,50.681,31.06c.1726,3.4687.1928,6.9468.4494,10.4082a8.45,8.45,0,0,0,1.1928,2.6132c1.3548-3.0448,2.5653-5.9442,3.9412-8.7628a7.2206,7.2206,0,0,1,2.149-2.709c.992-.6962,2.4441-1.4891,3.4528-1.2433,1.7635.43.78,2.1544.79,3.3914.021,2.6431.0271,5.2914.2131,7.9254a4.51,4.51,0,0,0,1.0261,2.733c.9855.9676,2.328,2.0967,3.5431,2.1249.8438.02,2.1056-1.5515,2.5259-2.66,1.5051-3.9691.4158-7.8687-.8942-11.6744C68.49,31.5214,67.6987,29.9089,66.8085,27.8025ZM39.7873,24.6333c-4.6212,4.3981-4.9666,9.2146-5.6676,15.0679C38.6235,35.3117,40.9563,31.2326,39.7873,24.6333Z"
        transform="translate(0 -1.2104)"/>
  <text class="cls-2" transform="translate(41.7394 71.6759)">Speiseplan</text>
</svg>
