<svg data-name="Ebene 1" id="Ebene_1" viewBox="0 0 139.9722 77.3014" xmlns="http://www.w3.org/2000/svg">
  <defs>
    <style>.cls-1, .cls-2 {
      fill: #fff;
    }

    .cls-2 {
      font-size: 18px;
      font-family: Calibri;
    }</style>
  </defs>
  <path class="cls-1"
        d="M0,12c.697-.0525,1.8005-.4033,2.02-.1049a42.2428,42.2428,0,0,1,2.1762,3.893c4.832,8.3185,9.6122,16.6687,14.5917,24.8981.9521,1.5735,2.7157,2.656,4.1049,3.965.6451-1.7921,1.7208-3.5506,1.864-5.3819.7943-10.1567.3837-20.2611-2.3328-30.1524-.7775-2.831-.5372-5.185,2.2414-7.11,2.5509,3.5045,2.9654,7.5645,3.1033,11.3962.3466,9.6281.2437,19.2767.111,28.9142a18.4784,18.4784,0,0,1-1.4911,6.2483c-1.1455,2.9387-3.5176,3.5244-5.909,1.45a27.369,27.369,0,0,1-4.2633-4.8532c-2.4985-3.5183-4.8107-7.1685-7.2235-10.7484a7.08,7.08,0,0,0-3.17-2.81c.4119,5.0664.6814,10.15,1.2947,15.1921A12.3111,12.3111,0,0,1,6,54H5c-.655-2.5139-1.7334-5.0033-1.8812-7.5466-.3626-6.2425-.459-12.5129-.3431-18.7662A18.337,18.337,0,0,0,0,17Z"/>
  <path class="cls-1"
        d="M120,42c-.9211,1.5493-1.7668,3.15-2.7766,4.6389-3.7653,5.5527-8.5735,5.5018-12.2333-.0944-.5252-.803-.9976-1.6406-1.6916-2.7882-1.3043,1.5948-2.3489,3.056-3.5779,4.3409-3.97,4.15-8.9215,3.526-11.2348-1.7263a24.1894,24.1894,0,0,1-1.5548-8.2127A23.7715,23.7715,0,0,1,89.8672,25.69a12.3477,12.3477,0,0,1,2.6412-3.5624c2.7449-2.4045,6.0813-1.5018,6.9531,2.01a13.2989,13.2989,0,0,1-.075,5.8717c-.924,4.1743-3.373,7.5193-6.44,10.4648-2.3272,2.2354-2.325,3.935-.22,5.7316,1.7608,1.5031,3.9956,1.2944,5.5055-1.102,2.1763-3.4538,4.6817-6.7151,5.0583-11.18a23.0533,23.0533,0,0,1,2.8967-8.3954c1.8874-3.5941,4.7374-6.0079,9.31-4.8614a4.9618,4.9618,0,0,0,1.8659-.3117c1.3908,7.1266.8552,9.09-3.2557,10.7521,0-1.8065.0782-3.4313-.0417-5.0414-.043-.5767-.4979-1.5237-.8819-1.5865a5.6611,5.6611,0,0,0-2.2362.51,1.1043,1.1043,0,0,0-.3845.3105c-3.7518,3.6715-4.9883,14.8187-2.15,19.3667,1.5451,2.4758,3.7486,2.8962,5.725.7326a23.3081,23.3081,0,0,0,3.0766-5.0579C117.8462,39.1305,118.3628,37.9447,120,38ZM90.4694,38.0053c4.1005-3.2623,5.85-6.836,6.04-11.1619.0308-.6986-.6095-1.4269-.94-2.1415-.6414.4255-1.5176.7058-1.8853,1.3005C91.5675,29.4272,90.6408,33.2159,90.4694,38.0053Z"/>
  <path class="cls-1"
        d="M95,0c-.4575,3.434-1.07,4.2909-3.9588,4.3306-6.0339.0829-5.78,1.5614-6.4416,5.511-.9325,5.5642-1.7881,11.1441-2.5112,16.7386-.1857,1.4374.334,2.9522.3831,4.4363.1812,5.47.3662,10.9424.3869,16.4145.004,1.0564-.7255,2.1157-1.1278,3.2041-2.2113-.72-2.5475-2.396-2.673-4.0454-.44-5.7872-.7885-11.5814-1.1557-17.374a25.4985,25.4985,0,0,0-.2951-4.9345,7.6137,7.6137,0,0,1,.7676-6.3479c1.71-3.2075,1.72-7.3213,2.5311-11.4046-4.2371.0823-7.645,2.2981-11.38,3.2626-.4592-3.128-.3862-3.7643,2.4956-4.76,4.5292-1.5649,9.2158-2.6726,13.83-3.994C86.9127.7332,87.9511.3479,89,0Z"/>
  <path class="cls-1"
        d="M66.8086,26.5921a4.3835,4.3835,0,0,1,4.7183,2.5285,18.4332,18.4332,0,0,1,1.4652,16.3056c-1.02,2.92-3.112,4.913-6.2372,4.9584-3.1513.0458-5.3338-2.0324-6.3569-4.8346-.9366-2.5652-1.2684-5.3511-2.0491-8.8591-.9558,2.5928-1.81,4.5246-2.3691,6.5384-.5312,1.9132-.6793,3.93-1.1344,5.8681-.3944,1.68-1.68,2.1292-2.9417.9735A14.9592,14.9592,0,0,1,49.47,46.967a38.8046,38.8046,0,0,1-1.77-3.538,52.3342,52.3342,0,0,1-4.4334,5.1041c-3.69,3.2828-8.101,2.6643-10.482-1.66a18.6023,18.6023,0,0,1-2.0569-7.08A25.5922,25.5922,0,0,1,34.024,24.4277c1.8814-3.2834,4.5817-4.7865,6.73-3.9186,2.2774.92,3.6029,3.7857,3.07,7.2776-.7857,5.1481-3.6163,9.2082-7.1814,12.853-1.9113,1.954-1.9723,2.9226-.6052,4.6562,1.6113,2.0431,3.8644,2.4506,5.5333.42,2.8195-3.43,5.6357-6.925,5.1136-11.9814a42.8659,42.8659,0,0,1,.48-8.4249c.0519-.5339.7992-1.47,1.079-1.4193.7009.1283,1.7519.6068,1.8864,1.14a24.8382,24.8382,0,0,1,.5507,4.8188c.1726,3.4687.1928,6.9468.4494,10.4082a8.4525,8.4525,0,0,0,1.1928,2.6132c1.3548-3.0448,2.5653-5.9442,3.9412-8.7629a7.22,7.22,0,0,1,2.1491-2.7089c.992-.6963,2.444-1.4892,3.4527-1.2434,1.7635.43.78,2.1544.79,3.3914.021,2.6431.0271,5.2915.2131,7.9254a4.51,4.51,0,0,0,1.0261,2.7331c.9855.9675,2.328,2.0966,3.5432,2.1249.8437.02,2.1055-1.5515,2.5259-2.66,1.505-3.969.4157-7.8686-.8943-11.6744C68.49,30.311,67.6988,28.6985,66.8086,26.5921ZM39.7874,23.4229c-4.6212,4.3981-4.9666,9.2145-5.6676,15.0679C38.6236,34.1013,40.9564,30.0222,39.7874,23.4229Z"/>
  <text class="cls-2" transform="translate(-0.0001 71.6764)">Speiseplan</text>
</svg>
